HIERARCHY
ROOT Hips
{
	OFFSET 0.00000 0.00000 0.00000
	CHANNELS 6 Xposition Yposition Zposition Zrotation Yrotation Xrotation 
	JOINT LHipJoint
	{
		OFFSET 0 0 0
		CHANNELS 3 Zrotation Yrotation Xrotation
		JOINT LeftHip
		{
			OFFSET 1.28858 -1.83292 1.03970
			CHANNELS 3 Zrotation Yrotation Xrotation
			JOINT LeftKnee
			{
				OFFSET 2.47846 -6.80952 0.00000
				CHANNELS 3 Zrotation Yrotation Xrotation
				JOINT LeftAnkle
				{
					OFFSET 2.75274 -7.56311 0.00000
					CHANNELS 3 Zrotation Yrotation Xrotation
					JOINT LeftToe
					{
						OFFSET 0.12848 -0.35301 1.68223
						CHANNELS 3 Zrotation Yrotation Xrotation
						End Site
						{
							OFFSET 0.00000 -0.00000 0.87311
						}
					}
				}
			}
		}
	}
	JOINT RHipJoint
	{
		OFFSET 0 0 0
		CHANNELS 3 Zrotation Yrotation Xrotation
		JOINT RightHip
		{
			OFFSET -1.31183 -1.83292 1.03970
			CHANNELS 3 Zrotation Yrotation Xrotation
			JOINT RightKnee
			{
				OFFSET -2.44740 -6.72417 0.00000
				CHANNELS 3 Zrotation Yrotation Xrotation
				JOINT RightAnkle
				{
					OFFSET -2.67343 -7.34519 0.00000
					CHANNELS 3 Zrotation Yrotation Xrotation
					JOINT RightToe
					{
						OFFSET -0.16914 -0.46471 1.77626
						CHANNELS 3 Zrotation Yrotation Xrotation
						End Site
						{
							OFFSET -0.00000 -0.00000 0.92777
						}
					}
				}
			}
		}
	}
	JOINT lowerback
	{
		OFFSET 0 0 0
		CHANNELS 3 Zrotation Yrotation Xrotation
		JOINT Chest
		{
			OFFSET 0.01249 2.14252 0.03842
			CHANNELS 3 Zrotation Yrotation Xrotation
			JOINT Chest2
			{
				OFFSET -0.02957 2.14199 -0.03751
				CHANNELS 3 Zrotation Yrotation Xrotation
				JOINT lowerneck
				{
					OFFSET 0 0 0
					CHANNELS 3 Zrotation Yrotation Xrotation
					JOINT Neck
					{
						OFFSET -0.01678 1.65709 -0.05476
						CHANNELS 3 Zrotation Yrotation Xrotation
						JOINT Head
						{
							OFFSET 0.07912 1.58331 -0.11843
							CHANNELS 3 Zrotation Yrotation Xrotation
							End Site
							{
								OFFSET 0.03298 1.73940 -0.04271
							}
						}
					}
				}
				JOINT LeftCollar
				{
					OFFSET 0 0 0
					CHANNELS 3 Zrotation Yrotation Xrotation
					JOINT LeftShoulder
					{
						OFFSET 3.39556 1.16496 0.08673
CHANNELS 3 Zrotation Xrotation Yrotation
						JOINT LeftElbow
						{
OFFSET 0 -5.239100 -0.000000
CHANNELS 3 Zrotation Xrotation Yrotation
							JOINT LeftWrist
							{
OFFSET 0 -3.314670 0.000000
CHANNELS 3 Zrotation Xrotation Yrotation
								JOINT lhand
								{
									OFFSET 0 0 0
CHANNELS 3 Zrotation Xrotation Yrotation
									JOINT LFingers
									{
OFFSET 0 -0.965900 0.000000
CHANNELS 3 Zrotation Xrotation Yrotation
										End Site
										{
OFFSET 0 -0.778730 0.000000
										}
									}
								}
								JOINT LThumb
								{
OFFSET 0 0.000000 0.000000
CHANNELS 3 Zrotation Xrotation Yrotation
									End Site
									{
OFFSET 0 -0.790620 0.790620
									}
								}
							}
						}
					}
				}
				JOINT RightCollar
				{
					OFFSET 0 0 0
					CHANNELS 3 Zrotation Yrotation Xrotation
					JOINT RightShoulder
					{
						OFFSET -3.27193 1.31331 0.33940
CHANNELS 3 Zrotation Xrotation Yrotation
						JOINT RightElbow
						{
OFFSET 0 -5.302520 0.000000
CHANNELS 3 Zrotation Xrotation Yrotation
							JOINT RightWrist
							{
OFFSET 0 -3.678750 0.000000
CHANNELS 3 Zrotation Xrotation Yrotation
								JOINT rhand
								{
									OFFSET 0 0 0
CHANNELS 3 Zrotation Xrotation Yrotation
									JOINT RFingers
									{
OFFSET 0 -0.594810 0.000000
CHANNELS 3 Zrotation Xrotation Yrotation
										End Site
										{
OFFSET 0 -0.479550 0.000000
										}
									}
								}
								JOINT RThumb
								{
OFFSET 0 0.000000 0.000000
CHANNELS 3 Zrotation Xrotation Yrotation
									End Site
									{
OFFSET 0 -0.486870 0.486870
									}
								}
							}
						}
					}
				}
			}
		}
	}
}
MOTION
Frames: 11
Frame Time: 0.008333333333333333
3.333100 16.959700 -16.027600 1.556600 -7.235900 3.006100 0.000000 0.000000 0.000000 -13.810100 -8.420200 -25.463600 4.959100 13.337500 40.645500 0.359000 -15.205900 -14.244900 3.114300 10.877800 31.868900 0.000000 0.000000 0.000000 22.266700 8.634000 -7.769000 -4.132000 -12.334100 36.924200 -2.523700 -16.647900 -39.523400 -5.377800 -13.797100 42.430600 2.459600 1.322900 -6.558600 -1.795200 1.647300 1.010700 -3.072500 0.910200 4.855500 -0.632600 -2.163000 0.569700 2.488500 -2.965300 3.857700 0.845800 -1.460000 1.140100 0.000000 0.000000 0.000000 9.639900 0.238800 -29.601500 12.121000 -19.985800 2.143500 -6.317800 -4.442700 11.373000 0.000000 0.000000 0.000000 -7.125000 0.000000 0.000000 -22.993400 18.910600 -15.603500 0.000000 0.000000 0.000000 -4.341500 7.061900 12.087000 -13.653900 -22.237700 -2.695700 15.981700 -2.415600 35.090300 0.000000 0.000000 0.000000 7.125000 0.000000 -0.000000 53.097500 57.028800 -19.265100
3.335766 16.958882 -16.023835 1.930807 -7.286643 2.922940 0.000000 0.000000 0.000000 -14.278148 -8.337415 -25.356352 4.946727 13.323523 40.592057 0.332663 -15.241639 -14.022321 3.257966 11.101371 32.622471 0.000000 0.000000 0.000000 21.789360 8.579760 -7.788345 -4.145223 -12.351158 36.985834 -3.971467 -9.744361 -41.828950 -0.325293 3.582778 -9.913900 2.300757 1.463018 -6.451849 -2.091406 1.861050 0.737652 -3.272957 1.007938 4.531330 -0.302511 -2.089752 1.614695 2.577463 -2.859134 3.529031 0.829838 -1.411830 0.856229 0.000000 0.000000 0.000000 10.026188 0.945585 -31.818428 12.586191 -20.677820 2.305132 -2.486317 -8.138982 10.171273 0.000000 0.000000 0.000000 -7.125000 0.000000 0.000000 -20.644772 20.042699 -13.193550 0.000000 0.000000 0.000000 -3.895333 7.864241 11.890070 -13.582176 -22.134212 -2.668652 12.433955 1.470469 30.729361 0.000000 0.000000 0.000000 7.125000 0.000000 0.000000 45.633739 54.684503 -12.853034
3.337643 16.960554 -16.027211 1.538395 -7.409084 3.125079 0.000000 0.000000 0.000000 -13.799745 -8.451274 -25.517515 4.960511 13.339208 40.651866 0.347402 -15.245190 -14.159371 3.306068 11.174497 32.871038 0.000000 0.000000 0.000000 22.224736 8.842966 -7.870773 -4.134827 -12.337759 36.937445 -4.747364 -7.026197 -43.902498 -0.062289 0.720110 -1.985999 2.728759 1.523157 -6.533872 -2.004638 1.901650 0.678518 -3.418817 1.036885 4.530646 -0.148611 -1.936195 1.745477 2.495762 -2.644472 3.282038 0.781655 -1.306386 0.750897 0.000000 0.000000 0.000000 10.042887 0.820275 -31.876467 12.547219 -20.620191 2.291340 0.586006 -8.579307 10.826550 0.000000 0.000000 0.000000 -7.125000 0.000000 0.000000 -18.499655 19.397893 -11.936164 0.000000 0.000000 0.000000 -3.851328 7.973520 12.204631 -13.420641 -21.900273 -2.608211 11.129367 2.949680 30.521113 0.000000 0.000000 0.000000 7.125000 0.000000 0.000000 44.316389 54.775949 -12.493596
3.337770 16.961411 -16.028111 1.402584 -7.416161 3.204670 0.000000 0.000000 0.000000 -13.629530 -8.466319 -25.616275 4.972717 13.352994 40.704704 0.340409 -15.309386 -14.128811 3.356612 11.251089 33.131501 0.000000 0.000000 0.000000 22.380641 8.891578 -7.903772 -4.124375 -12.324150 36.888555 -5.312847 -5.804850 -45.778622 -0.003239 0.203106 -0.557942 2.837466 1.487388 -6.567589 -1.929695 1.841360 0.740020 -3.407274 1.010838 4.609924 -0.105407 -1.810856 1.481379 2.392741 -2.475774 3.268211 0.740771 -1.220598 0.785699 0.000000 0.000000 0.000000 9.944900 0.584710 -31.880923 12.581984 -20.671660 2.303623 3.724198 -9.364960 11.728891 0.000000 0.000000 0.000000 -7.125000 0.000000 0.000000 -16.284815 18.468774 -10.726717 0.000000 0.000000 0.000000 -3.923543 7.883665 12.753147 -13.248725 -21.650584 -2.544319 8.479939 5.386210 28.773600 0.000000 0.000000 0.000000 7.125000 0.000000 0.000000 40.455763 53.948879 -10.187520
3.337151 16.962141 -16.029589 1.311727 -7.393386 3.263492 0.000000 0.000000 0.000000 -13.510869 -8.468357 -25.698637 4.979065 13.360133 40.732036 0.337589 -15.323865 -14.111198 3.354937 11.248512 33.122808 0.000000 0.000000 0.000000 22.499892 8.953602 -7.919997 -4.118421 -12.316400 36.860529 -5.754360 -4.956922 -47.246942 -0.002404 -0.279890 0.769179 2.888877 1.436682 -6.587579 -1.863042 1.766167 0.810933 -3.373985 0.976316 4.688500 -0.097833 -1.699064 1.169350 2.316883 -2.328124 3.341867 0.714018 -1.144655 0.857205 0.000000 0.000000 0.000000 9.849511 0.343046 -31.865870 12.602714 -20.702387 2.310952 6.167820 -10.026062 12.697903 0.000000 0.000000 0.000000 -7.125000 0.000000 0.000000 -14.553484 17.445682 -9.843958 0.000000 0.000000 0.000000 -3.991889 7.794289 13.260272 -13.118466 -21.460511 -2.496460 6.534611 7.203527 27.688966 0.000000 0.000000 0.000000 7.125000 0.000000 0.000000 37.850523 53.446631 -8.861220
3.335613 16.962400 -16.031512 1.280377 -7.347347 3.294894 0.000000 0.000000 0.000000 -13.459211 -8.468853 -25.760013 4.982070 13.363612 40.745308 0.334343 -15.319354 -14.078801 3.342163 11.229373 33.057396 0.000000 0.000000 0.000000 22.567552 9.019377 -7.914510 -4.115371 -12.312404 36.846267 -6.027313 -4.644843 -48.212498 -0.014374 -0.763029 2.097044 2.863415 1.371226 -6.586019 -1.804590 1.678298 0.890825 -3.307479 0.933633 4.761183 -0.149204 -1.613334 0.827639 2.284088 -2.217865 3.483106 0.710368 -1.087212 0.956973 0.000000 0.000000 0.000000 9.742967 0.090020 -31.830405 12.607147 -20.708883 2.312488 7.673485 -10.445279 13.278634 0.000000 0.000000 0.000000 -7.125000 0.000000 0.000000 -13.498882 16.809649 -9.281153 0.000000 0.000000 0.000000 -4.064678 7.693713 13.711477 -13.029897 -21.331008 -2.464190 4.969089 8.596940 26.762017 0.000000 0.000000 0.000000 7.125000 0.000000 0.000000 35.743458 52.973287 -7.811840
3.333886 16.962400 -16.033906 1.263765 -7.312776 3.320670 0.000000 0.000000 0.000000 -13.423923 -8.484984 -25.806091 4.983351 13.365022 40.750676 0.330983 -15.305093 -14.040750 3.347283 11.237059 33.083467 0.000000 0.000000 0.000000 22.622339 9.112684 -7.902726 -4.114500 -12.311230 36.842059 -6.166551 -4.509290 -48.707133 -0.026696 -1.051312 2.890124 2.825913 1.318101 -6.568622 -1.758787 1.608740 0.941109 -3.245970 0.898794 4.795680 -0.228092 -1.548961 0.597119 2.299828 -2.135876 3.602189 0.727270 -1.044655 1.033025 0.000000 0.000000 0.000000 9.655478 -0.114138 -31.835246 12.594460 -20.690151 2.308056 8.375520 -10.607422 13.313581 0.000000 0.000000 0.000000 -7.125000 0.000000 0.000000 -13.020593 16.739611 -8.954971 0.000000 0.000000 0.000000 -4.109952 7.641794 14.029520 -12.983913 -21.263652 -2.447456 3.916811 9.483638 26.066245 0.000000 0.000000 0.000000 7.125000 0.000000 0.000000 34.292431 52.582233 -7.075346
3.332415 16.962203 -16.035585 1.261468 -7.299700 3.335781 0.000000 0.000000 0.000000 -13.409669 -8.510333 -25.824874 4.983204 13.364805 40.750017 0.327340 -15.294589 -14.001913 3.374478 11.277917 33.222851 0.000000 0.000000 0.000000 22.650896 9.189295 -7.894181 -4.115585 -12.312581 36.846933 -6.195408 -4.490161 -48.811934 -0.032656 -1.166100 3.205900 2.790189 1.285007 -6.540513 -1.730255 1.566783 0.960352 -3.201038 0.876804 4.794572 -0.316956 -1.506887 0.506276 2.351694 -2.082589 3.660422 0.758054 -1.017547 1.067722 0.000000 0.000000 0.000000 9.595173 -0.238283 -31.897437 12.585564 -20.676995 2.304923 8.506037 -10.610107 13.061532 0.000000 0.000000 0.000000 -7.125000 0.000000 0.000000 -12.943315 16.980635 -8.828716 0.000000 0.000000 0.000000 -4.122631 7.645062 14.207907 -12.973348 -21.248269 -2.443617 3.389321 9.898154 25.654455 0.000000 0.000000 0.000000 7.125000 0.000000 0.000000 33.527404 52.329352 -6.661231
3.331384 16.961919 -16.036354 1.284112 -7.302820 3.331133 0.000000 0.000000 0.000000 -13.430464 -8.533922 -25.812259 4.982465 13.364038 40.746832 0.323984 -15.293732 -13.970720 3.410820 11.332135 33.408404 0.000000 0.000000 0.000000 22.636858 9.220087 -7.887548 -4.117560 -12.315268 36.856455 -6.194699 -4.501585 -48.813009 -0.034408 -1.197639 3.292757 2.749812 1.266920 -6.506880 -1.720889 1.546312 0.972003 -3.171028 0.865448 4.784570 -0.408689 -1.489563 0.483534 2.424210 -2.061612 3.672865 0.796010 -1.007183 1.077442 0.000000 0.000000 0.000000 9.562225 -0.273384 -32.006540 12.619560 -20.727243 2.316933 8.496688 -10.606924 12.701755 0.000000 0.000000 0.000000 -7.125000 0.000000 0.000000 -12.966500 17.335042 -8.741977 0.000000 0.000000 0.000000 -4.108755 7.661315 14.281798 -12.987415 -21.268719 -2.448710 3.258532 9.970340 25.498350 0.000000 0.000000 0.000000 7.125000 0.000000 0.000000 33.301759 52.220459 -6.512291
3.330523 16.961589 -16.036278 1.310521 -7.313265 3.314809 0.000000 0.000000 0.000000 -13.459373 -8.548712 -25.787006 4.982266 13.363822 40.746076 0.324509 -15.289152 -13.972614 3.424678 11.352723 33.478847 0.000000 0.000000 0.000000 22.608020 9.211685 -7.882293 -4.119299 -12.317465 36.864494 -6.187843 -4.505402 -48.787939 -0.034423 -1.197723 3.292987 2.729061 1.259391 -6.483671 -1.727053 1.538769 0.995825 -3.166800 0.861745 4.795332 -0.469251 -1.480253 0.458681 2.487591 -2.050854 3.674812 0.825810 -1.001738 1.083817 0.000000 0.000000 0.000000 9.560463 -0.259276 -32.148276 12.695008 -20.838697 2.343723 8.516259 -10.686679 12.643345 0.000000 0.000000 0.000000 -7.125000 0.000000 0.000000 -12.955914 17.391500 -8.717947 0.000000 0.000000 0.000000 -4.065216 7.666453 14.318271 -13.017067 -21.312208 -2.459499 3.351343 9.893340 25.548027 0.000000 0.000000 0.000000 7.125000 0.000000 0.000000 33.419640 52.246380 -6.562818
3.329797 16.961249 -16.035849 1.323026 -7.327892 3.297173 0.000000 0.000000 0.000000 -13.472623 -8.558553 -25.762450 4.983573 13.365257 40.751728 0.327998 -15.284689 -14.002431 3.419053 11.344371 33.450176 0.000000 0.000000 0.000000 22.587946 9.179072 -7.880162 -4.119784 -12.318084 36.866835 -6.177879 -4.496052 -48.746457 -0.033949 -1.188772 3.268456 2.742353 1.261266 -6.477997 -1.744758 1.541201 1.032448 -3.192373 0.864717 4.831559 -0.481813 -1.472874 0.421909 2.528041 -2.042404 3.677517 0.840405 -0.996899 1.091550 0.000000 0.000000 0.000000 9.590139 -0.225521 -32.314098 12.795505 -20.986906 2.379555 8.536908 -10.776511 12.705211 0.000000 0.000000 0.000000 -7.125000 0.000000 0.000000 -12.938852 17.329589 -8.723901 0.000000 0.000000 0.000000 -3.989172 7.659255 14.342715 -13.051012 -21.361971 -2.471813 3.528283 9.790589 25.671810 0.000000 0.000000 0.000000 7.125000 0.000000 0.000000 33.664704 52.320025 -6.685859
